STARTFONT 2.1
FONT -FontForge-Righteous-Book-R-Normal--9-90-72-72-P-48-ISO10646-1
SIZE 9 72 72
FONTBOUNDINGBOX 11 11 -1 -2
COMMENT "Generated by fontforge, http://fontforge.sourceforge.net"
COMMENT "Copyright (c) 2011 by Brian J. Bonislawsky DBA Astigmatic (AOETI) (astigma@astigmatic.com), with ReservedFont Name "Righteous""
STARTPROPERTIES 39
FOUNDRY "FontForge"
FAMILY_NAME "Righteous"
WEIGHT_NAME "Book"
SLANT "R"
SETWIDTH_NAME "Normal"
ADD_STYLE_NAME ""
PIXEL_SIZE 9
POINT_SIZE 90
RESOLUTION_X 72
RESOLUTION_Y 72
SPACING "P"
AVERAGE_WIDTH 48
CHARSET_REGISTRY "ISO10646"
CHARSET_ENCODING "1"
FONTNAME_REGISTRY ""
CHARSET_COLLECTIONS "ISO8859-2 ISO8859-9 ISO8859-4 ISO10646-1"
FONT_NAME "Righteous-Regular"
FACE_NAME "Righteous"
COPYRIGHT "Copyright (c) 2011 by Brian J. Bonislawsky DBA Astigmatic (AOETI) (astigma@astigmatic.com), with ReservedFont Name "Righteous""
FONT_VERSION "1.000"
FONT_ASCENT 7
FONT_DESCENT 2
UNDERLINE_POSITION -1
UNDERLINE_THICKNESS 1
X_HEIGHT 4
CAP_HEIGHT 5
RAW_ASCENT 799
RAW_DESCENT 200
NORM_SPACE 3
RELATIVE_WEIGHT 40
RELATIVE_SETWIDTH 50
SUPERSCRIPT_X 0
SUPERSCRIPT_Y 4
SUPERSCRIPT_SIZE 5
SUBSCRIPT_X 0
SUBSCRIPT_Y 1
SUBSCRIPT_SIZE 5
AVG_LOWERCASE_WIDTH 47
AVG_UPPERCASE_WIDTH 56
ENDPROPERTIES
CHARS 372
STARTCHAR space
ENCODING 32
SWIDTH 279 0
DWIDTH 3 0
BBX 1 1 0 0
BITMAP
00
ENDCHAR
STARTCHAR exclam
ENCODING 33
SWIDTH 274 0
DWIDTH 2 0
BBX 2 6 0 0
BITMAP
40
40
40
40
00
C0
ENDCHAR
STARTCHAR quotedbl
ENCODING 34
SWIDTH 409 0
DWIDTH 4 0
BBX 2 2 1 4
BITMAP
C0
C0
ENDCHAR
STARTCHAR numbersign
ENCODING 35
SWIDTH 561 0
DWIDTH 5 0
BBX 5 4 0 1
BITMAP
30
78
F0
60
ENDCHAR
STARTCHAR dollar
ENCODING 36
SWIDTH 458 0
DWIDTH 4 0
BBX 4 6 0 0
BITMAP
20
70
E0
10
E0
20
ENDCHAR
STARTCHAR percent
ENCODING 37
SWIDTH 685 0
DWIDTH 6 0
BBX 6 6 0 0
BITMAP
A8
B0
50
2C
34
4C
ENDCHAR
STARTCHAR ampersand
ENCODING 38
SWIDTH 485 0
DWIDTH 4 0
BBX 3 6 1 0
BITMAP
60
80
C0
80
E0
40
ENDCHAR
STARTCHAR quotesingle
ENCODING 39
SWIDTH 238 0
DWIDTH 2 0
BBX 1 2 1 4
BITMAP
80
80
ENDCHAR
STARTCHAR parenleft
ENCODING 40
SWIDTH 351 0
DWIDTH 3 0
BBX 3 8 0 -1
BITMAP
60
40
C0
C0
C0
40
40
60
ENDCHAR
STARTCHAR parenright
ENCODING 41
SWIDTH 351 0
DWIDTH 3 0
BBX 3 8 0 -1
BITMAP
40
40
60
20
20
60
40
C0
ENDCHAR
STARTCHAR asterisk
ENCODING 42
SWIDTH 589 0
DWIDTH 5 0
BBX 5 4 0 3
BITMAP
28
F8
70
50
ENDCHAR
STARTCHAR plus
ENCODING 43
SWIDTH 485 0
DWIDTH 4 0
BBX 4 4 0 1
BITMAP
20
F0
20
20
ENDCHAR
STARTCHAR comma
ENCODING 44
SWIDTH 264 0
DWIDTH 2 0
BBX 2 2 0 -1
BITMAP
C0
40
ENDCHAR
STARTCHAR hyphen
ENCODING 45
SWIDTH 528 0
DWIDTH 5 0
BBX 3 1 1 3
BITMAP
E0
ENDCHAR
STARTCHAR period
ENCODING 46
SWIDTH 263 0
DWIDTH 2 0
BBX 2 1 0 0
BITMAP
C0
ENDCHAR
STARTCHAR slash
ENCODING 47
SWIDTH 490 0
DWIDTH 4 0
BBX 4 6 0 0
BITMAP
10
20
20
60
40
C0
ENDCHAR
STARTCHAR zero
ENCODING 48
SWIDTH 642 0
DWIDTH 6 0
BBX 5 6 0 0
BITMAP
78
48
C8
C8
48
78
ENDCHAR
STARTCHAR one
ENCODING 49
SWIDTH 317 0
DWIDTH 3 0
BBX 2 6 0 0
BITMAP
C0
40
40
40
40
40
ENDCHAR
STARTCHAR two
ENCODING 50
SWIDTH 570 0
DWIDTH 5 0
BBX 5 6 0 0
BITMAP
70
08
78
C0
C0
F8
ENDCHAR
STARTCHAR three
ENCODING 51
SWIDTH 586 0
DWIDTH 5 0
BBX 5 6 0 0
BITMAP
F0
08
78
18
18
F0
ENDCHAR
STARTCHAR four
ENCODING 52
SWIDTH 630 0
DWIDTH 6 0
BBX 5 6 0 0
BITMAP
58
58
58
F8
F8
18
ENDCHAR
STARTCHAR five
ENCODING 53
SWIDTH 585 0
DWIDTH 5 0
BBX 5 6 0 0
BITMAP
78
40
70
18
08
F0
ENDCHAR
STARTCHAR six
ENCODING 54
SWIDTH 615 0
DWIDTH 6 0
BBX 5 6 0 0
BITMAP
60
70
F8
C8
C8
70
ENDCHAR
STARTCHAR seven
ENCODING 55
SWIDTH 516 0
DWIDTH 5 0
BBX 4 6 0 0
BITMAP
F0
10
30
20
20
60
ENDCHAR
STARTCHAR eight
ENCODING 56
SWIDTH 618 0
DWIDTH 6 0
BBX 5 6 0 0
BITMAP
78
48
70
C8
C8
78
ENDCHAR
STARTCHAR nine
ENCODING 57
SWIDTH 616 0
DWIDTH 6 0
BBX 5 6 0 0
BITMAP
78
C8
C8
78
18
30
ENDCHAR
STARTCHAR colon
ENCODING 58
SWIDTH 276 0
DWIDTH 2 0
BBX 1 4 1 0
BITMAP
80
80
00
80
ENDCHAR
STARTCHAR semicolon
ENCODING 59
SWIDTH 276 0
DWIDTH 2 0
BBX 1 5 1 -1
BITMAP
80
80
00
80
80
ENDCHAR
STARTCHAR less
ENCODING 60
SWIDTH 478 0
DWIDTH 4 0
BBX 4 5 0 1
BITMAP
30
60
C0
60
30
ENDCHAR
STARTCHAR equal
ENCODING 61
SWIDTH 539 0
DWIDTH 5 0
BBX 3 3 1 2
BITMAP
E0
E0
E0
ENDCHAR
STARTCHAR greater
ENCODING 62
SWIDTH 478 0
DWIDTH 4 0
BBX 3 5 1 1
BITMAP
80
C0
60
C0
80
ENDCHAR
STARTCHAR question
ENCODING 63
SWIDTH 603 0
DWIDTH 5 0
BBX 5 6 0 0
BITMAP
F8
08
38
20
00
60
ENDCHAR
STARTCHAR at
ENCODING 64
SWIDTH 629 0
DWIDTH 6 0
BBX 5 5 0 0
BITMAP
30
58
B0
B8
60
ENDCHAR
STARTCHAR A
ENCODING 65
SWIDTH 673 0
DWIDTH 6 0
BBX 5 6 1 0
BITMAP
F0
90
98
F8
F8
98
ENDCHAR
STARTCHAR B
ENCODING 66
SWIDTH 666 0
DWIDTH 6 0
BBX 5 6 1 0
BITMAP
F0
98
F0
90
98
F0
ENDCHAR
STARTCHAR C
ENCODING 67
SWIDTH 640 0
DWIDTH 6 0
BBX 6 6 0 0
BITMAP
7C
40
C0
C0
40
38
ENDCHAR
STARTCHAR D
ENCODING 68
SWIDTH 653 0
DWIDTH 6 0
BBX 5 6 1 0
BITMAP
F0
90
98
98
B0
E0
ENDCHAR
STARTCHAR E
ENCODING 69
SWIDTH 578 0
DWIDTH 5 0
BBX 4 6 1 0
BITMAP
F0
80
E0
80
80
F0
ENDCHAR
STARTCHAR F
ENCODING 70
SWIDTH 562 0
DWIDTH 5 0
BBX 4 6 1 0
BITMAP
F0
80
E0
80
80
80
ENDCHAR
STARTCHAR G
ENCODING 71
SWIDTH 665 0
DWIDTH 6 0
BBX 6 6 0 0
BITMAP
7C
40
C0
CC
4C
38
ENDCHAR
STARTCHAR H
ENCODING 72
SWIDTH 689 0
DWIDTH 6 0
BBX 5 6 1 0
BITMAP
98
98
F8
98
98
98
ENDCHAR
STARTCHAR I
ENCODING 73
SWIDTH 270 0
DWIDTH 2 0
BBX 1 6 1 0
BITMAP
80
80
80
80
80
80
ENDCHAR
STARTCHAR J
ENCODING 74
SWIDTH 416 0
DWIDTH 4 0
BBX 3 6 0 0
BITMAP
20
20
20
20
60
C0
ENDCHAR
STARTCHAR K
ENCODING 75
SWIDTH 625 0
DWIDTH 6 0
BBX 4 6 1 0
BITMAP
90
A0
E0
E0
B0
90
ENDCHAR
STARTCHAR L
ENCODING 76
SWIDTH 562 0
DWIDTH 5 0
BBX 4 6 1 0
BITMAP
80
80
80
80
80
F0
ENDCHAR
STARTCHAR M
ENCODING 77
SWIDTH 819 0
DWIDTH 7 0
BBX 6 6 1 0
BITMAP
FC
A4
A4
A4
A4
A4
ENDCHAR
STARTCHAR N
ENCODING 78
SWIDTH 689 0
DWIDTH 6 0
BBX 5 6 1 0
BITMAP
98
D8
F8
B8
B8
98
ENDCHAR
STARTCHAR O
ENCODING 79
SWIDTH 777 0
DWIDTH 7 0
BBX 7 6 0 0
BITMAP
7C
44
C6
C6
44
38
ENDCHAR
STARTCHAR P
ENCODING 80
SWIDTH 642 0
DWIDTH 6 0
BBX 5 6 1 0
BITMAP
F0
98
98
F0
E0
80
ENDCHAR
STARTCHAR Q
ENCODING 81
SWIDTH 777 0
DWIDTH 7 0
BBX 7 7 0 -1
BITMAP
7C
44
C6
C6
44
38
08
ENDCHAR
STARTCHAR R
ENCODING 82
SWIDTH 651 0
DWIDTH 6 0
BBX 5 6 1 0
BITMAP
F0
98
98
F0
F0
90
ENDCHAR
STARTCHAR S
ENCODING 83
SWIDTH 610 0
DWIDTH 6 0
BBX 5 6 0 0
BITMAP
78
80
F0
18
08
78
ENDCHAR
STARTCHAR T
ENCODING 84
SWIDTH 578 0
DWIDTH 5 0
BBX 5 6 0 0
BITMAP
F8
20
20
20
20
20
ENDCHAR
STARTCHAR U
ENCODING 85
SWIDTH 673 0
DWIDTH 6 0
BBX 5 6 1 0
BITMAP
98
98
98
98
90
70
ENDCHAR
STARTCHAR V
ENCODING 86
SWIDTH 602 0
DWIDTH 5 0
BBX 5 6 0 0
BITMAP
C8
58
50
70
30
20
ENDCHAR
STARTCHAR W
ENCODING 87
SWIDTH 819 0
DWIDTH 7 0
BBX 6 6 1 0
BITMAP
A4
A4
A4
A4
A4
F8
ENDCHAR
STARTCHAR X
ENCODING 88
SWIDTH 608 0
DWIDTH 5 0
BBX 5 6 0 0
BITMAP
D8
70
30
30
58
C8
ENDCHAR
STARTCHAR Y
ENCODING 89
SWIDTH 620 0
DWIDTH 6 0
BBX 5 6 0 0
BITMAP
C8
C8
C8
70
20
20
ENDCHAR
STARTCHAR Z
ENCODING 90
SWIDTH 586 0
DWIDTH 5 0
BBX 5 6 0 0
BITMAP
F8
10
30
20
60
F8
ENDCHAR
STARTCHAR bracketleft
ENCODING 91
SWIDTH 380 0
DWIDTH 3 0
BBX 2 8 1 -1
BITMAP
C0
80
80
80
80
80
80
C0
ENDCHAR
STARTCHAR backslash
ENCODING 92
SWIDTH 490 0
DWIDTH 4 0
BBX 3 6 1 0
BITMAP
80
80
C0
40
60
20
ENDCHAR
STARTCHAR bracketright
ENCODING 93
SWIDTH 380 0
DWIDTH 3 0
BBX 3 8 0 -1
BITMAP
E0
20
20
20
20
20
20
E0
ENDCHAR
STARTCHAR asciicircum
ENCODING 94
SWIDTH 293 0
DWIDTH 3 0
BBX 2 1 0 5
BITMAP
C0
ENDCHAR
STARTCHAR underscore
ENCODING 95
SWIDTH 598 0
DWIDTH 5 0
BBX 4 1 1 -2
BITMAP
F0
ENDCHAR
STARTCHAR grave
ENCODING 96
SWIDTH 225 0
DWIDTH 2 0
BBX 2 2 0 4
BITMAP
C0
40
ENDCHAR
STARTCHAR a
ENCODING 97
SWIDTH 607 0
DWIDTH 5 0
BBX 5 5 0 0
BITMAP
70
D8
88
D8
78
ENDCHAR
STARTCHAR b
ENCODING 98
SWIDTH 597 0
DWIDTH 5 0
BBX 5 7 0 0
BITMAP
C0
C0
F0
D8
C8
48
70
ENDCHAR
STARTCHAR c
ENCODING 99
SWIDTH 521 0
DWIDTH 5 0
BBX 4 5 0 0
BITMAP
70
D0
80
D0
70
ENDCHAR
STARTCHAR d
ENCODING 100
SWIDTH 606 0
DWIDTH 5 0
BBX 5 7 0 0
BITMAP
08
08
78
D8
88
D8
78
ENDCHAR
STARTCHAR e
ENCODING 101
SWIDTH 524 0
DWIDTH 5 0
BBX 4 5 0 0
BITMAP
70
D0
A0
F0
70
ENDCHAR
STARTCHAR f
ENCODING 102
SWIDTH 395 0
DWIDTH 4 0
BBX 4 7 0 0
BITMAP
70
40
E0
40
40
40
40
ENDCHAR
STARTCHAR g
ENCODING 103
SWIDTH 607 0
DWIDTH 5 0
BBX 5 7 0 -2
BITMAP
70
D8
88
D8
78
18
30
ENDCHAR
STARTCHAR h
ENCODING 104
SWIDTH 562 0
DWIDTH 5 0
BBX 5 7 0 0
BITMAP
C0
C0
F0
D0
D8
D8
D8
ENDCHAR
STARTCHAR i
ENCODING 105
SWIDTH 235 0
DWIDTH 2 0
BBX 2 7 0 0
BITMAP
C0
C0
C0
C0
C0
C0
C0
ENDCHAR
STARTCHAR j
ENCODING 106
SWIDTH 237 0
DWIDTH 2 0
BBX 3 9 -1 -2
BITMAP
60
60
60
60
60
60
60
40
80
ENDCHAR
STARTCHAR k
ENCODING 107
SWIDTH 539 0
DWIDTH 5 0
BBX 5 7 0 0
BITMAP
C0
C0
D8
D0
E0
D0
D8
ENDCHAR
STARTCHAR l
ENCODING 108
SWIDTH 235 0
DWIDTH 2 0
BBX 2 7 0 0
BITMAP
C0
C0
C0
C0
C0
C0
C0
ENDCHAR
STARTCHAR m
ENCODING 109
SWIDTH 762 0
DWIDTH 7 0
BBX 6 5 0 0
BITMAP
EC
D4
D4
D4
D4
ENDCHAR
STARTCHAR n
ENCODING 110
SWIDTH 562 0
DWIDTH 5 0
BBX 5 5 0 0
BITMAP
F0
D0
D8
D8
D8
ENDCHAR
STARTCHAR o
ENCODING 111
SWIDTH 579 0
DWIDTH 5 0
BBX 5 5 0 0
BITMAP
70
D8
88
D8
70
ENDCHAR
STARTCHAR p
ENCODING 112
SWIDTH 608 0
DWIDTH 5 0
BBX 5 7 0 -2
BITMAP
B0
C8
C8
C8
F0
C0
C0
ENDCHAR
STARTCHAR q
ENCODING 113
SWIDTH 607 0
DWIDTH 5 0
BBX 5 7 0 -2
BITMAP
70
D8
88
D8
78
08
08
ENDCHAR
STARTCHAR r
ENCODING 114
SWIDTH 414 0
DWIDTH 4 0
BBX 4 5 0 0
BITMAP
B0
E0
C0
C0
C0
ENDCHAR
STARTCHAR s
ENCODING 115
SWIDTH 523 0
DWIDTH 5 0
BBX 5 5 0 0
BITMAP
70
C0
F0
18
F0
ENDCHAR
STARTCHAR t
ENCODING 116
SWIDTH 437 0
DWIDTH 4 0
BBX 4 7 0 0
BITMAP
40
40
F0
C0
40
40
70
ENDCHAR
STARTCHAR u
ENCODING 117
SWIDTH 562 0
DWIDTH 5 0
BBX 5 5 0 0
BITMAP
D8
D8
D8
D8
78
ENDCHAR
STARTCHAR v
ENCODING 118
SWIDTH 532 0
DWIDTH 5 0
BBX 5 5 0 0
BITMAP
98
D0
50
70
20
ENDCHAR
STARTCHAR w
ENCODING 119
SWIDTH 756 0
DWIDTH 7 0
BBX 6 5 0 0
BITMAP
D4
D4
D4
D4
7C
ENDCHAR
STARTCHAR x
ENCODING 120
SWIDTH 528 0
DWIDTH 5 0
BBX 5 5 0 0
BITMAP
D8
70
20
70
D0
ENDCHAR
STARTCHAR y
ENCODING 121
SWIDTH 562 0
DWIDTH 5 0
BBX 5 7 0 -2
BITMAP
D8
D8
D8
D8
78
10
20
ENDCHAR
STARTCHAR z
ENCODING 122
SWIDTH 481 0
DWIDTH 4 0
BBX 4 5 0 0
BITMAP
F0
E0
20
40
F0
ENDCHAR
STARTCHAR braceleft
ENCODING 123
SWIDTH 466 0
DWIDTH 4 0
BBX 4 8 0 -1
BITMAP
70
60
60
C0
60
60
60
30
ENDCHAR
STARTCHAR bar
ENCODING 124
SWIDTH 267 0
DWIDTH 2 0
BBX 1 8 1 -1
BITMAP
80
80
80
80
80
80
80
80
ENDCHAR
STARTCHAR braceright
ENCODING 125
SWIDTH 466 0
DWIDTH 4 0
BBX 4 8 0 -1
BITMAP
E0
20
20
30
20
20
20
E0
ENDCHAR
STARTCHAR asciitilde
ENCODING 126
SWIDTH 451 0
DWIDTH 4 0
BBX 4 2 0 2
BITMAP
F0
40
ENDCHAR
STARTCHAR nonbreakingspace
ENCODING 160
SWIDTH 279 0
DWIDTH 3 0
BBX 1 1 0 0
BITMAP
00
ENDCHAR
STARTCHAR exclamdown
ENCODING 161
SWIDTH 274 0
DWIDTH 2 0
BBX 2 6 0 -1
BITMAP
C0
00
40
40
40
40
ENDCHAR
STARTCHAR cent
ENCODING 162
SWIDTH 462 0
DWIDTH 4 0
BBX 4 6 0 0
BITMAP
20
70
80
C0
60
20
ENDCHAR
STARTCHAR sterling
ENCODING 163
SWIDTH 681 0
DWIDTH 6 0
BBX 6 6 0 0
BITMAP
70
40
E0
E0
4C
78
ENDCHAR
STARTCHAR currency
ENCODING 164
SWIDTH 454 0
DWIDTH 4 0
BBX 4 4 0 1
BITMAP
90
00
40
10
ENDCHAR
STARTCHAR yen
ENCODING 165
SWIDTH 653 0
DWIDTH 6 0
BBX 5 6 0 0
BITMAP
C8
C8
48
70
78
30
ENDCHAR
STARTCHAR brokenbar
ENCODING 166
SWIDTH 269 0
DWIDTH 2 0
BBX 1 8 1 -1
BITMAP
80
80
80
00
80
80
80
80
ENDCHAR
STARTCHAR section
ENCODING 167
SWIDTH 569 0
DWIDTH 5 0
BBX 5 6 0 0
BITMAP
70
70
78
78
08
F0
ENDCHAR
STARTCHAR dieresis
ENCODING 168
SWIDTH 300 0
DWIDTH 3 0
BBX 3 1 0 5
BITMAP
A0
ENDCHAR
STARTCHAR copyright
ENCODING 169
SWIDTH 655 0
DWIDTH 6 0
BBX 5 5 0 1
BITMAP
30
78
C0
80
48
ENDCHAR
STARTCHAR ordfeminine
ENCODING 170
SWIDTH 451 0
DWIDTH 4 0
BBX 2 4 1 2
BITMAP
40
00
80
C0
ENDCHAR
STARTCHAR guillemotleft
ENCODING 171
SWIDTH 704 0
DWIDTH 6 0
BBX 6 5 0 0
BITMAP
20
6C
D8
68
24
ENDCHAR
STARTCHAR logicalnot
ENCODING 172
SWIDTH 529 0
DWIDTH 5 0
BBX 3 2 1 2
BITMAP
E0
20
ENDCHAR
STARTCHAR uni00AD
ENCODING 173
SWIDTH 418 0
DWIDTH 4 0
BBX 2 1 1 3
BITMAP
C0
ENDCHAR
STARTCHAR registered
ENCODING 174
SWIDTH 439 0
DWIDTH 4 0
BBX 4 3 0 3
BITMAP
60
F0
60
ENDCHAR
STARTCHAR macron
ENCODING 175
SWIDTH 247 0
DWIDTH 2 0
BBX 2 1 0 5
BITMAP
C0
ENDCHAR
STARTCHAR degree
ENCODING 176
SWIDTH 381 0
DWIDTH 3 0
BBX 3 3 0 3
BITMAP
60
A0
40
ENDCHAR
STARTCHAR plusminus
ENCODING 177
SWIDTH 516 0
DWIDTH 5 0
BBX 4 5 0 0
BITMAP
20
F0
20
00
F0
ENDCHAR
STARTCHAR twosuperior
ENCODING 178
SWIDTH 355 0
DWIDTH 3 0
BBX 3 3 0 3
BITMAP
60
40
E0
ENDCHAR
STARTCHAR threesuperior
ENCODING 179
SWIDTH 354 0
DWIDTH 3 0
BBX 2 3 1 3
BITMAP
C0
C0
80
ENDCHAR
STARTCHAR acute
ENCODING 180
SWIDTH 225 0
DWIDTH 2 0
BBX 2 2 0 4
BITMAP
C0
80
ENDCHAR
STARTCHAR mu
ENCODING 181
SWIDTH 571 0
DWIDTH 5 0
BBX 4 7 1 -2
BITMAP
90
90
90
B0
F0
80
80
ENDCHAR
STARTCHAR paragraph
ENCODING 182
SWIDTH 808 0
DWIDTH 7 0
BBX 7 6 0 0
BITMAP
7E
D6
D6
76
36
16
ENDCHAR
STARTCHAR periodcentered
ENCODING 183
SWIDTH 261 0
DWIDTH 2 0
BBX 1 2 1 2
BITMAP
80
80
ENDCHAR
STARTCHAR cedilla
ENCODING 184
SWIDTH 208 0
DWIDTH 2 0
BBX 2 2 0 -2
BITMAP
40
C0
ENDCHAR
STARTCHAR onesuperior
ENCODING 185
SWIDTH 231 0
DWIDTH 2 0
BBX 2 3 0 3
BITMAP
C0
40
40
ENDCHAR
STARTCHAR ordmasculine
ENCODING 186
SWIDTH 432 0
DWIDTH 4 0
BBX 3 4 0 2
BITMAP
20
00
40
E0
ENDCHAR
STARTCHAR guillemotright
ENCODING 187
SWIDTH 703 0
DWIDTH 6 0
BBX 5 4 1 0
BITMAP
B0
58
D0
A0
ENDCHAR
STARTCHAR onequarter
ENCODING 188
SWIDTH 648 0
DWIDTH 6 0
BBX 4 6 1 0
BITMAP
A0
A0
C0
70
B0
90
ENDCHAR
STARTCHAR onehalf
ENCODING 189
SWIDTH 637 0
DWIDTH 6 0
BBX 4 6 1 0
BITMAP
A0
A0
C0
70
B0
B0
ENDCHAR
STARTCHAR threequarters
ENCODING 190
SWIDTH 708 0
DWIDTH 6 0
BBX 6 6 0 0
BITMAP
E8
70
D0
2C
24
44
ENDCHAR
STARTCHAR questiondown
ENCODING 191
SWIDTH 602 0
DWIDTH 5 0
BBX 5 6 0 -1
BITMAP
10
00
30
60
C0
78
ENDCHAR
STARTCHAR Agrave
ENCODING 192
SWIDTH 673 0
DWIDTH 6 0
BBX 5 8 1 0
BITMAP
40
00
F0
90
98
F8
F8
98
ENDCHAR
STARTCHAR Aacute
ENCODING 193
SWIDTH 673 0
DWIDTH 6 0
BBX 5 8 1 0
BITMAP
20
00
F0
90
98
F8
F8
98
ENDCHAR
STARTCHAR Acircumflex
ENCODING 194
SWIDTH 673 0
DWIDTH 6 0
BBX 5 8 1 0
BITMAP
60
00
F0
90
98
F8
F8
98
ENDCHAR
STARTCHAR Atilde
ENCODING 195
SWIDTH 673 0
DWIDTH 6 0
BBX 5 8 1 0
BITMAP
60
00
F0
90
98
F8
F8
98
ENDCHAR
STARTCHAR Adieresis
ENCODING 196
SWIDTH 673 0
DWIDTH 6 0
BBX 5 8 1 0
BITMAP
60
00
F0
90
98
F8
F8
98
ENDCHAR
STARTCHAR Aring
ENCODING 197
SWIDTH 673 0
DWIDTH 6 0
BBX 5 8 1 0
BITMAP
60
60
F0
90
98
F8
F8
98
ENDCHAR
STARTCHAR AE
ENCODING 198
SWIDTH 988 0
DWIDTH 9 0
BBX 8 6 1 0
BITMAP
FF
98
9E
F8
F8
9F
ENDCHAR
STARTCHAR Ccedilla
ENCODING 199
SWIDTH 640 0
DWIDTH 6 0
BBX 6 8 0 -2
BITMAP
7C
40
C0
C0
40
38
10
30
ENDCHAR
STARTCHAR Egrave
ENCODING 200
SWIDTH 578 0
DWIDTH 5 0
BBX 4 8 1 0
BITMAP
C0
00
F0
80
E0
80
80
F0
ENDCHAR
STARTCHAR Eacute
ENCODING 201
SWIDTH 578 0
DWIDTH 5 0
BBX 4 8 1 0
BITMAP
20
00
F0
80
E0
80
80
F0
ENDCHAR
STARTCHAR Ecircumflex
ENCODING 202
SWIDTH 578 0
DWIDTH 5 0
BBX 4 8 1 0
BITMAP
60
00
F0
80
E0
80
80
F0
ENDCHAR
STARTCHAR Edieresis
ENCODING 203
SWIDTH 578 0
DWIDTH 5 0
BBX 4 8 1 0
BITMAP
A0
00
F0
80
E0
80
80
F0
ENDCHAR
STARTCHAR Igrave
ENCODING 204
SWIDTH 270 0
DWIDTH 2 0
BBX 2 8 0 0
BITMAP
80
00
40
40
40
40
40
40
ENDCHAR
STARTCHAR Iacute
ENCODING 205
SWIDTH 270 0
DWIDTH 2 0
BBX 2 8 1 0
BITMAP
C0
00
80
80
80
80
80
80
ENDCHAR
STARTCHAR Icircumflex
ENCODING 206
SWIDTH 270 0
DWIDTH 2 0
BBX 2 8 0 0
BITMAP
C0
00
40
40
40
40
40
40
ENDCHAR
STARTCHAR Idieresis
ENCODING 207
SWIDTH 270 0
DWIDTH 2 0
BBX 3 8 0 0
BITMAP
A0
00
40
40
40
40
40
40
ENDCHAR
STARTCHAR Eth
ENCODING 208
SWIDTH 672 0
DWIDTH 6 0
BBX 6 6 0 0
BITMAP
78
4C
E4
4C
48
70
ENDCHAR
STARTCHAR Ntilde
ENCODING 209
SWIDTH 689 0
DWIDTH 6 0
BBX 5 8 1 0
BITMAP
70
00
98
D8
F8
B8
B8
98
ENDCHAR
STARTCHAR Ograve
ENCODING 210
SWIDTH 777 0
DWIDTH 7 0
BBX 7 8 0 0
BITMAP
30
10
7C
44
C6
C6
44
38
ENDCHAR
STARTCHAR Oacute
ENCODING 211
SWIDTH 777 0
DWIDTH 7 0
BBX 7 8 0 0
BITMAP
08
00
7C
44
C6
C6
44
38
ENDCHAR
STARTCHAR Ocircumflex
ENCODING 212
SWIDTH 777 0
DWIDTH 7 0
BBX 7 8 0 0
BITMAP
10
00
7C
44
C6
C6
44
38
ENDCHAR
STARTCHAR Otilde
ENCODING 213
SWIDTH 777 0
DWIDTH 7 0
BBX 7 8 0 0
BITMAP
38
00
7C
44
C6
C6
44
38
ENDCHAR
STARTCHAR Odieresis
ENCODING 214
SWIDTH 777 0
DWIDTH 7 0
BBX 7 8 0 0
BITMAP
28
00
7C
44
C6
C6
44
38
ENDCHAR
STARTCHAR multiply
ENCODING 215
SWIDTH 479 0
DWIDTH 4 0
BBX 3 3 1 2
BITMAP
A0
C0
E0
ENDCHAR
STARTCHAR Oslash
ENCODING 216
SWIDTH 777 0
DWIDTH 7 0
BBX 7 6 0 0
BITMAP
7C
4C
D6
F6
64
78
ENDCHAR
STARTCHAR Ugrave
ENCODING 217
SWIDTH 673 0
DWIDTH 6 0
BBX 5 8 1 0
BITMAP
40
00
98
98
98
98
90
70
ENDCHAR
STARTCHAR Uacute
ENCODING 218
SWIDTH 673 0
DWIDTH 6 0
BBX 5 8 1 0
BITMAP
30
00
98
98
98
98
90
70
ENDCHAR
STARTCHAR Ucircumflex
ENCODING 219
SWIDTH 673 0
DWIDTH 6 0
BBX 5 8 1 0
BITMAP
60
00
98
98
98
98
90
70
ENDCHAR
STARTCHAR Udieresis
ENCODING 220
SWIDTH 673 0
DWIDTH 6 0
BBX 5 8 1 0
BITMAP
60
00
98
98
98
98
90
70
ENDCHAR
STARTCHAR Yacute
ENCODING 221
SWIDTH 620 0
DWIDTH 6 0
BBX 5 8 0 0
BITMAP
10
00
C8
C8
C8
70
20
20
ENDCHAR
STARTCHAR Thorn
ENCODING 222
SWIDTH 637 0
DWIDTH 6 0
BBX 5 7 1 0
BITMAP
80
E0
F0
98
98
F0
80
ENDCHAR
STARTCHAR germandbls
ENCODING 223
SWIDTH 813 0
DWIDTH 7 0
BBX 7 7 0 0
BITMAP
78
44
DC
50
5E
42
5E
ENDCHAR
STARTCHAR agrave
ENCODING 224
SWIDTH 607 0
DWIDTH 5 0
BBX 5 7 0 0
BITMAP
60
20
70
D8
88
D8
78
ENDCHAR
STARTCHAR aacute
ENCODING 225
SWIDTH 607 0
DWIDTH 5 0
BBX 5 7 0 0
BITMAP
10
00
70
D8
88
D8
78
ENDCHAR
STARTCHAR acircumflex
ENCODING 226
SWIDTH 607 0
DWIDTH 5 0
BBX 5 7 0 0
BITMAP
20
00
70
D8
88
D8
78
ENDCHAR
STARTCHAR atilde
ENCODING 227
SWIDTH 607 0
DWIDTH 5 0
BBX 5 6 0 0
BITMAP
70
70
D8
88
D8
78
ENDCHAR
STARTCHAR adieresis
ENCODING 228
SWIDTH 607 0
DWIDTH 5 0
BBX 5 6 0 0
BITMAP
50
70
D8
88
D8
78
ENDCHAR
STARTCHAR aring
ENCODING 229
SWIDTH 607 0
DWIDTH 5 0
BBX 5 5 0 0
BITMAP
70
D8
88
D8
78
ENDCHAR
STARTCHAR ae
ENCODING 230
SWIDTH 976 0
DWIDTH 9 0
BBX 8 5 0 0
BITMAP
77
DD
8B
DE
7F
ENDCHAR
STARTCHAR ccedilla
ENCODING 231
SWIDTH 521 0
DWIDTH 5 0
BBX 4 7 0 -2
BITMAP
70
D0
80
D0
70
20
20
ENDCHAR
STARTCHAR egrave
ENCODING 232
SWIDTH 524 0
DWIDTH 5 0
BBX 4 7 0 0
BITMAP
60
20
70
D0
A0
F0
70
ENDCHAR
STARTCHAR eacute
ENCODING 233
SWIDTH 524 0
DWIDTH 5 0
BBX 4 7 0 0
BITMAP
10
00
70
D0
A0
F0
70
ENDCHAR
STARTCHAR ecircumflex
ENCODING 234
SWIDTH 524 0
DWIDTH 5 0
BBX 4 7 0 0
BITMAP
20
00
70
D0
A0
F0
70
ENDCHAR
STARTCHAR edieresis
ENCODING 235
SWIDTH 524 0
DWIDTH 5 0
BBX 4 6 0 0
BITMAP
50
70
D0
A0
F0
70
ENDCHAR
STARTCHAR igrave
ENCODING 236
SWIDTH 235 0
DWIDTH 2 0
BBX 2 7 0 0
BITMAP
80
00
C0
C0
C0
C0
C0
ENDCHAR
STARTCHAR iacute
ENCODING 237
SWIDTH 235 0
DWIDTH 2 0
BBX 2 7 0 0
BITMAP
40
00
C0
C0
C0
C0
C0
ENDCHAR
STARTCHAR icircumflex
ENCODING 238
SWIDTH 235 0
DWIDTH 2 0
BBX 2 7 0 0
BITMAP
C0
00
C0
C0
C0
C0
C0
ENDCHAR
STARTCHAR idieresis
ENCODING 239
SWIDTH 235 0
DWIDTH 2 0
BBX 2 6 0 0
BITMAP
C0
C0
C0
C0
C0
C0
ENDCHAR
STARTCHAR eth
ENCODING 240
SWIDTH 581 0
DWIDTH 5 0
BBX 5 7 0 0
BITMAP
30
78
78
D8
88
D8
70
ENDCHAR
STARTCHAR ntilde
ENCODING 241
SWIDTH 562 0
DWIDTH 5 0
BBX 5 6 0 0
BITMAP
70
F0
D0
D8
D8
D8
ENDCHAR
STARTCHAR ograve
ENCODING 242
SWIDTH 579 0
DWIDTH 5 0
BBX 5 7 0 0
BITMAP
60
20
70
D8
88
D8
70
ENDCHAR
STARTCHAR oacute
ENCODING 243
SWIDTH 579 0
DWIDTH 5 0
BBX 5 7 0 0
BITMAP
10
00
70
D8
88
D8
70
ENDCHAR
STARTCHAR ocircumflex
ENCODING 244
SWIDTH 579 0
DWIDTH 5 0
BBX 5 7 0 0
BITMAP
20
00
70
D8
88
D8
70
ENDCHAR
STARTCHAR otilde
ENCODING 245
SWIDTH 579 0
DWIDTH 5 0
BBX 5 6 0 0
BITMAP
70
70
D8
88
D8
70
ENDCHAR
STARTCHAR odieresis
ENCODING 246
SWIDTH 579 0
DWIDTH 5 0
BBX 5 6 0 0
BITMAP
50
70
D8
88
D8
70
ENDCHAR
STARTCHAR divide
ENCODING 247
SWIDTH 494 0
DWIDTH 4 0
BBX 4 4 0 1
BITMAP
20
F0
00
20
ENDCHAR
STARTCHAR oslash
ENCODING 248
SWIDTH 579 0
DWIDTH 5 0
BBX 5 5 0 0
BITMAP
78
D8
A8
F8
70
ENDCHAR
STARTCHAR ugrave
ENCODING 249
SWIDTH 562 0
DWIDTH 5 0
BBX 5 7 0 0
BITMAP
60
20
D8
D8
D8
D8
78
ENDCHAR
STARTCHAR uacute
ENCODING 250
SWIDTH 562 0
DWIDTH 5 0
BBX 5 7 0 0
BITMAP
30
20
D8
D8
D8
D8
78
ENDCHAR
STARTCHAR ucircumflex
ENCODING 251
SWIDTH 562 0
DWIDTH 5 0
BBX 5 6 0 0
BITMAP
20
D8
D8
D8
D8
78
ENDCHAR
STARTCHAR udieresis
ENCODING 252
SWIDTH 562 0
DWIDTH 5 0
BBX 5 6 0 0
BITMAP
50
D8
D8
D8
D8
78
ENDCHAR
STARTCHAR yacute
ENCODING 253
SWIDTH 562 0
DWIDTH 5 0
BBX 5 9 0 -2
BITMAP
30
20
D8
D8
D8
D8
78
10
20
ENDCHAR
STARTCHAR thorn
ENCODING 254
SWIDTH 608 0
DWIDTH 5 0
BBX 5 9 0 -2
BITMAP
C0
C0
F0
C8
C8
C8
F0
C0
C0
ENDCHAR
STARTCHAR ydieresis
ENCODING 255
SWIDTH 562 0
DWIDTH 5 0
BBX 5 8 0 -2
BITMAP
50
D8
D8
D8
D8
78
10
20
ENDCHAR
STARTCHAR Amacron
ENCODING 256
SWIDTH 673 0
DWIDTH 6 0
BBX 5 8 1 0
BITMAP
60
00
F0
90
98
F8
F8
98
ENDCHAR
STARTCHAR amacron
ENCODING 257
SWIDTH 607 0
DWIDTH 5 0
BBX 5 6 0 0
BITMAP
70
70
D8
88
D8
78
ENDCHAR
STARTCHAR Abreve
ENCODING 258
SWIDTH 673 0
DWIDTH 6 0
BBX 5 8 1 0
BITMAP
60
00
F0
90
98
F8
F8
98
ENDCHAR
STARTCHAR abreve
ENCODING 259
SWIDTH 607 0
DWIDTH 5 0
BBX 5 6 0 0
BITMAP
20
70
D8
88
D8
78
ENDCHAR
STARTCHAR Aogonek
ENCODING 260
SWIDTH 673 0
DWIDTH 6 0
BBX 5 8 1 -2
BITMAP
F0
90
98
F8
F8
98
10
10
ENDCHAR
STARTCHAR aogonek
ENCODING 261
SWIDTH 607 0
DWIDTH 5 0
BBX 5 7 0 -2
BITMAP
70
D8
88
D8
78
08
08
ENDCHAR
STARTCHAR Cacute
ENCODING 262
SWIDTH 640 0
DWIDTH 6 0
BBX 6 8 0 0
BITMAP
18
00
7C
40
C0
C0
40
38
ENDCHAR
STARTCHAR cacute
ENCODING 263
SWIDTH 521 0
DWIDTH 5 0
BBX 4 7 0 0
BITMAP
30
20
70
D0
80
D0
70
ENDCHAR
STARTCHAR Ccircumflex
ENCODING 264
SWIDTH 640 0
DWIDTH 6 0
BBX 6 8 0 0
BITMAP
30
00
7C
40
C0
C0
40
38
ENDCHAR
STARTCHAR ccircumflex
ENCODING 265
SWIDTH 521 0
DWIDTH 5 0
BBX 4 7 0 0
BITMAP
20
00
70
D0
80
D0
70
ENDCHAR
STARTCHAR Cdotaccent
ENCODING 266
SWIDTH 640 0
DWIDTH 6 0
BBX 6 8 0 0
BITMAP
10
00
7C
40
C0
C0
40
38
ENDCHAR
STARTCHAR cdotaccent
ENCODING 267
SWIDTH 521 0
DWIDTH 5 0
BBX 4 6 0 0
BITMAP
20
70
D0
80
D0
70
ENDCHAR
STARTCHAR Ccaron
ENCODING 268
SWIDTH 640 0
DWIDTH 6 0
BBX 6 8 0 0
BITMAP
30
00
7C
40
C0
C0
40
38
ENDCHAR
STARTCHAR ccaron
ENCODING 269
SWIDTH 521 0
DWIDTH 5 0
BBX 4 7 0 0
BITMAP
30
00
70
D0
80
D0
70
ENDCHAR
STARTCHAR Dcaron
ENCODING 270
SWIDTH 653 0
DWIDTH 6 0
BBX 5 8 1 0
BITMAP
60
00
F0
90
98
98
B0
E0
ENDCHAR
STARTCHAR dcaron
ENCODING 271
SWIDTH 740 0
DWIDTH 7 0
BBX 7 7 0 0
BITMAP
08
0A
78
D8
88
D8
78
ENDCHAR
STARTCHAR Dcroat
ENCODING 272
SWIDTH 672 0
DWIDTH 6 0
BBX 6 6 0 0
BITMAP
78
4C
E4
4C
48
70
ENDCHAR
STARTCHAR dcroat
ENCODING 273
SWIDTH 606 0
DWIDTH 5 0
BBX 5 7 0 0
BITMAP
08
18
78
D8
88
D8
78
ENDCHAR
STARTCHAR Emacron
ENCODING 274
SWIDTH 578 0
DWIDTH 5 0
BBX 4 8 1 0
BITMAP
60
00
F0
80
E0
80
80
F0
ENDCHAR
STARTCHAR emacron
ENCODING 275
SWIDTH 524 0
DWIDTH 5 0
BBX 4 6 0 0
BITMAP
70
70
D0
A0
F0
70
ENDCHAR
STARTCHAR Ebreve
ENCODING 276
SWIDTH 578 0
DWIDTH 5 0
BBX 4 8 1 0
BITMAP
60
00
F0
80
E0
80
80
F0
ENDCHAR
STARTCHAR ebreve
ENCODING 277
SWIDTH 524 0
DWIDTH 5 0
BBX 4 6 0 0
BITMAP
20
70
D0
A0
F0
70
ENDCHAR
STARTCHAR Edotaccent
ENCODING 278
SWIDTH 578 0
DWIDTH 5 0
BBX 4 8 1 0
BITMAP
40
00
F0
80
E0
80
80
F0
ENDCHAR
STARTCHAR edotaccent
ENCODING 279
SWIDTH 524 0
DWIDTH 5 0
BBX 4 6 0 0
BITMAP
20
70
D0
A0
F0
70
ENDCHAR
STARTCHAR Eogonek
ENCODING 280
SWIDTH 578 0
DWIDTH 5 0
BBX 4 8 1 -2
BITMAP
F0
80
E0
80
80
F0
20
20
ENDCHAR
STARTCHAR eogonek
ENCODING 281
SWIDTH 524 0
DWIDTH 5 0
BBX 4 7 0 -2
BITMAP
70
D0
A0
F0
70
20
10
ENDCHAR
STARTCHAR Ecaron
ENCODING 282
SWIDTH 578 0
DWIDTH 5 0
BBX 4 8 1 0
BITMAP
60
00
F0
80
E0
80
80
F0
ENDCHAR
STARTCHAR ecaron
ENCODING 283
SWIDTH 524 0
DWIDTH 5 0
BBX 4 7 0 0
BITMAP
30
00
70
D0
A0
F0
70
ENDCHAR
STARTCHAR Gcircumflex
ENCODING 284
SWIDTH 665 0
DWIDTH 6 0
BBX 6 8 0 0
BITMAP
10
00
7C
40
C0
CC
4C
38
ENDCHAR
STARTCHAR gcircumflex
ENCODING 285
SWIDTH 607 0
DWIDTH 5 0
BBX 5 9 0 -2
BITMAP
20
00
70
D8
88
D8
78
18
30
ENDCHAR
STARTCHAR Gbreve
ENCODING 286
SWIDTH 665 0
DWIDTH 6 0
BBX 6 8 0 0
BITMAP
30
00
7C
40
C0
CC
4C
38
ENDCHAR
STARTCHAR gbreve
ENCODING 287
SWIDTH 607 0
DWIDTH 5 0
BBX 5 8 0 -2
BITMAP
30
70
D8
88
D8
78
18
30
ENDCHAR
STARTCHAR Gdotaccent
ENCODING 288
SWIDTH 665 0
DWIDTH 6 0
BBX 6 8 0 0
BITMAP
10
00
7C
40
C0
CC
4C
38
ENDCHAR
STARTCHAR gdotaccent
ENCODING 289
SWIDTH 607 0
DWIDTH 5 0
BBX 5 8 0 -2
BITMAP
20
70
D8
88
D8
78
18
30
ENDCHAR
STARTCHAR Gcommaaccent
ENCODING 290
SWIDTH 665 0
DWIDTH 6 0
BBX 6 8 0 -2
BITMAP
7C
40
C0
CC
4C
38
10
10
ENDCHAR
STARTCHAR gcommaaccent
ENCODING 291
SWIDTH 607 0
DWIDTH 5 0
BBX 5 9 0 -2
BITMAP
20
20
70
D8
88
D8
78
18
30
ENDCHAR
STARTCHAR Hcircumflex
ENCODING 292
SWIDTH 689 0
DWIDTH 6 0
BBX 5 8 1 0
BITMAP
60
00
98
98
F8
98
98
98
ENDCHAR
STARTCHAR hcircumflex
ENCODING 293
SWIDTH 562 0
DWIDTH 5 0
BBX 5 7 0 0
BITMAP
F0
C0
F0
D0
D8
D8
D8
ENDCHAR
STARTCHAR Hbar
ENCODING 294
SWIDTH 689 0
DWIDTH 6 0
BBX 6 6 0 0
BITMAP
FC
FC
7C
4C
4C
4C
ENDCHAR
STARTCHAR hbar
ENCODING 295
SWIDTH 562 0
DWIDTH 5 0
BBX 5 7 0 0
BITMAP
C0
C0
F0
D0
D8
D8
D8
ENDCHAR
STARTCHAR Itilde
ENCODING 296
SWIDTH 270 0
DWIDTH 2 0
BBX 3 8 0 0
BITMAP
E0
00
40
40
40
40
40
40
ENDCHAR
STARTCHAR itilde
ENCODING 297
SWIDTH 235 0
DWIDTH 2 0
BBX 3 6 0 0
BITMAP
E0
C0
C0
C0
C0
C0
ENDCHAR
STARTCHAR Imacron
ENCODING 298
SWIDTH 270 0
DWIDTH 2 0
BBX 2 8 0 0
BITMAP
C0
00
40
40
40
40
40
40
ENDCHAR
STARTCHAR imacron
ENCODING 299
SWIDTH 235 0
DWIDTH 2 0
BBX 2 6 0 0
BITMAP
C0
C0
C0
C0
C0
C0
ENDCHAR
STARTCHAR Ibreve
ENCODING 300
SWIDTH 270 0
DWIDTH 2 0
BBX 2 8 0 0
BITMAP
C0
00
40
40
40
40
40
40
ENDCHAR
STARTCHAR ibreve
ENCODING 301
SWIDTH 235 0
DWIDTH 2 0
BBX 2 6 0 0
BITMAP
C0
C0
C0
C0
C0
C0
ENDCHAR
STARTCHAR Iogonek
ENCODING 302
SWIDTH 270 0
DWIDTH 2 0
BBX 2 8 0 -2
BITMAP
40
40
40
40
40
40
80
40
ENDCHAR
STARTCHAR iogonek
ENCODING 303
SWIDTH 235 0
DWIDTH 2 0
BBX 2 9 0 -2
BITMAP
C0
C0
C0
C0
C0
C0
C0
80
40
ENDCHAR
STARTCHAR Idotaccent
ENCODING 304
SWIDTH 270 0
DWIDTH 2 0
BBX 1 8 1 0
BITMAP
80
00
80
80
80
80
80
80
ENDCHAR
STARTCHAR dotlessi
ENCODING 305
SWIDTH 235 0
DWIDTH 2 0
BBX 2 5 0 0
BITMAP
C0
C0
C0
C0
C0
ENDCHAR
STARTCHAR IJ
ENCODING 306
SWIDTH 687 0
DWIDTH 6 0
BBX 5 6 1 0
BITMAP
98
98
98
98
90
B0
ENDCHAR
STARTCHAR ij
ENCODING 307
SWIDTH 474 0
DWIDTH 4 0
BBX 4 9 0 -2
BITMAP
D0
D0
D0
D0
D0
D0
D0
30
60
ENDCHAR
STARTCHAR Jcircumflex
ENCODING 308
SWIDTH 416 0
DWIDTH 4 0
BBX 3 8 0 0
BITMAP
20
00
20
20
20
20
60
C0
ENDCHAR
STARTCHAR jcircumflex
ENCODING 309
SWIDTH 237 0
DWIDTH 2 0
BBX 3 8 -1 -2
BITMAP
60
60
60
60
60
60
40
80
ENDCHAR
STARTCHAR Kcommaaccent
ENCODING 310
SWIDTH 625 0
DWIDTH 6 0
BBX 4 8 1 -2
BITMAP
90
A0
E0
E0
B0
90
00
40
ENDCHAR
STARTCHAR kcommaaccent
ENCODING 311
SWIDTH 539 0
DWIDTH 5 0
BBX 5 9 0 -2
BITMAP
C0
C0
D8
D0
E0
D0
D8
20
20
ENDCHAR
STARTCHAR kgreenlandic
ENCODING 312
SWIDTH 539 0
DWIDTH 5 0
BBX 5 5 0 0
BITMAP
D8
D0
E0
D0
D8
ENDCHAR
STARTCHAR Lacute
ENCODING 313
SWIDTH 562 0
DWIDTH 5 0
BBX 4 8 1 0
BITMAP
60
40
80
80
80
80
80
F0
ENDCHAR
STARTCHAR lacute
ENCODING 314
SWIDTH 235 0
DWIDTH 2 0
BBX 3 9 0 0
BITMAP
60
00
C0
C0
C0
C0
C0
C0
C0
ENDCHAR
STARTCHAR Lcommaaccent
ENCODING 315
SWIDTH 562 0
DWIDTH 5 0
BBX 4 8 1 -2
BITMAP
80
80
80
80
80
F0
40
40
ENDCHAR
STARTCHAR lcommaaccent
ENCODING 316
SWIDTH 235 0
DWIDTH 2 0
BBX 2 9 0 -2
BITMAP
C0
C0
C0
C0
C0
C0
C0
00
40
ENDCHAR
STARTCHAR Lcaron
ENCODING 317
SWIDTH 562 0
DWIDTH 5 0
BBX 4 6 1 0
BITMAP
E0
80
80
80
80
F0
ENDCHAR
STARTCHAR lcaron
ENCODING 318
SWIDTH 369 0
DWIDTH 3 0
BBX 3 7 0 0
BITMAP
C0
E0
C0
C0
C0
C0
C0
ENDCHAR
STARTCHAR Ldot
ENCODING 319
SWIDTH 745 0
DWIDTH 7 0
BBX 5 6 1 0
BITMAP
80
80
88
88
80
F0
ENDCHAR
STARTCHAR ldotaccent
ENCODING 320
SWIDTH 463 0
DWIDTH 4 0
BBX 4 7 0 0
BITMAP
C0
C0
C0
F0
C0
C0
C0
ENDCHAR
STARTCHAR Lslash
ENCODING 321
SWIDTH 585 0
DWIDTH 5 0
BBX 5 6 0 0
BITMAP
40
40
60
C0
40
78
ENDCHAR
STARTCHAR lslash
ENCODING 322
SWIDTH 319 0
DWIDTH 3 0
BBX 3 7 0 0
BITMAP
40
40
40
60
C0
40
40
ENDCHAR
STARTCHAR Nacute
ENCODING 323
SWIDTH 689 0
DWIDTH 6 0
BBX 5 8 1 0
BITMAP
30
00
98
D8
F8
B8
B8
98
ENDCHAR
STARTCHAR nacute
ENCODING 324
SWIDTH 562 0
DWIDTH 5 0
BBX 5 7 0 0
BITMAP
10
00
F0
D0
D8
D8
D8
ENDCHAR
STARTCHAR Ncommaaccent
ENCODING 325
SWIDTH 689 0
DWIDTH 6 0
BBX 5 8 1 -2
BITMAP
98
D8
F8
B8
B8
98
00
20
ENDCHAR
STARTCHAR ncommaaccent
ENCODING 326
SWIDTH 562 0
DWIDTH 5 0
BBX 5 7 0 -2
BITMAP
F0
D0
D8
D8
D8
20
20
ENDCHAR
STARTCHAR Ncaron
ENCODING 327
SWIDTH 689 0
DWIDTH 6 0
BBX 5 8 1 0
BITMAP
60
00
98
D8
F8
B8
B8
98
ENDCHAR
STARTCHAR ncaron
ENCODING 328
SWIDTH 562 0
DWIDTH 5 0
BBX 5 7 0 0
BITMAP
20
00
F0
D0
D8
D8
D8
ENDCHAR
STARTCHAR napostrophe
ENCODING 329
SWIDTH 694 0
DWIDTH 6 0
BBX 6 6 0 0
BITMAP
80
18
2C
24
24
24
ENDCHAR
STARTCHAR Eng
ENCODING 330
SWIDTH 689 0
DWIDTH 6 0
BBX 5 8 1 -2
BITMAP
98
D8
F8
B8
B8
98
70
60
ENDCHAR
STARTCHAR eng
ENCODING 331
SWIDTH 562 0
DWIDTH 5 0
BBX 5 7 0 -2
BITMAP
F0
D0
D8
D8
D8
10
20
ENDCHAR
STARTCHAR Omacron
ENCODING 332
SWIDTH 777 0
DWIDTH 7 0
BBX 7 8 0 0
BITMAP
38
00
7C
44
C6
C6
44
38
ENDCHAR
STARTCHAR omacron
ENCODING 333
SWIDTH 579 0
DWIDTH 5 0
BBX 5 6 0 0
BITMAP
70
70
D8
88
D8
70
ENDCHAR
STARTCHAR Obreve
ENCODING 334
SWIDTH 777 0
DWIDTH 7 0
BBX 7 8 0 0
BITMAP
10
00
7C
44
C6
C6
44
38
ENDCHAR
STARTCHAR obreve
ENCODING 335
SWIDTH 579 0
DWIDTH 5 0
BBX 5 6 0 0
BITMAP
30
70
D8
88
D8
70
ENDCHAR
STARTCHAR Ohungarumlaut
ENCODING 336
SWIDTH 777 0
DWIDTH 7 0
BBX 7 9 0 0
BITMAP
10
38
00
7C
44
C6
C6
44
38
ENDCHAR
STARTCHAR ohungarumlaut
ENCODING 337
SWIDTH 579 0
DWIDTH 5 0
BBX 5 7 0 0
BITMAP
20
78
70
D8
88
D8
70
ENDCHAR
STARTCHAR OE
ENCODING 338
SWIDTH 1125 0
DWIDTH 10 0
BBX 10 6 0 0
BITMAP
7FC0
4600
C780
C600
4600
3BC0
ENDCHAR
STARTCHAR oe
ENCODING 339
SWIDTH 924 0
DWIDTH 8 0
BBX 8 5 0 0
BITMAP
77
DF
8A
DD
77
ENDCHAR
STARTCHAR Racute
ENCODING 340
SWIDTH 651 0
DWIDTH 6 0
BBX 5 8 1 0
BITMAP
20
00
F0
98
98
F0
F0
90
ENDCHAR
STARTCHAR racute
ENCODING 341
SWIDTH 414 0
DWIDTH 4 0
BBX 4 7 0 0
BITMAP
20
00
B0
E0
C0
C0
C0
ENDCHAR
STARTCHAR Rcommaaccent
ENCODING 342
SWIDTH 651 0
DWIDTH 6 0
BBX 5 6 1 0
BITMAP
F0
98
98
F0
F0
90
ENDCHAR
STARTCHAR rcommaaccent
ENCODING 343
SWIDTH 414 0
DWIDTH 4 0
BBX 4 7 0 -2
BITMAP
B0
E0
C0
C0
C0
00
40
ENDCHAR
STARTCHAR Rcaron
ENCODING 344
SWIDTH 651 0
DWIDTH 6 0
BBX 5 8 1 0
BITMAP
60
00
F0
98
98
F0
F0
90
ENDCHAR
STARTCHAR rcaron
ENCODING 345
SWIDTH 414 0
DWIDTH 4 0
BBX 4 6 0 0
BITMAP
60
B0
E0
C0
C0
C0
ENDCHAR
STARTCHAR Sacute
ENCODING 346
SWIDTH 610 0
DWIDTH 6 0
BBX 5 8 0 0
BITMAP
10
00
78
80
F0
18
08
78
ENDCHAR
STARTCHAR sacute
ENCODING 347
SWIDTH 523 0
DWIDTH 5 0
BBX 5 7 0 0
BITMAP
30
20
70
C0
F0
18
F0
ENDCHAR
STARTCHAR Scircumflex
ENCODING 348
SWIDTH 610 0
DWIDTH 6 0
BBX 5 8 0 0
BITMAP
30
00
78
80
F0
18
08
78
ENDCHAR
STARTCHAR scircumflex
ENCODING 349
SWIDTH 523 0
DWIDTH 5 0
BBX 5 7 0 0
BITMAP
20
00
70
C0
F0
18
F0
ENDCHAR
STARTCHAR Scedilla
ENCODING 350
SWIDTH 610 0
DWIDTH 6 0
BBX 5 8 0 -2
BITMAP
78
80
F0
18
08
78
20
30
ENDCHAR
STARTCHAR scedilla
ENCODING 351
SWIDTH 523 0
DWIDTH 5 0
BBX 5 7 0 -2
BITMAP
70
C0
F0
18
F0
20
60
ENDCHAR
STARTCHAR Scaron
ENCODING 352
SWIDTH 610 0
DWIDTH 6 0
BBX 5 8 0 0
BITMAP
30
00
78
80
F0
18
08
78
ENDCHAR
STARTCHAR scaron
ENCODING 353
SWIDTH 523 0
DWIDTH 5 0
BBX 5 6 0 0
BITMAP
20
70
C0
F0
18
F0
ENDCHAR
STARTCHAR Tcommaaccent
ENCODING 354
SWIDTH 578 0
DWIDTH 5 0
BBX 5 8 0 -2
BITMAP
F8
20
20
20
20
20
20
20
ENDCHAR
STARTCHAR tcommaaccent
ENCODING 355
SWIDTH 437 0
DWIDTH 4 0
BBX 4 9 0 -2
BITMAP
40
40
F0
C0
40
40
70
00
20
ENDCHAR
STARTCHAR Tcaron
ENCODING 356
SWIDTH 578 0
DWIDTH 5 0
BBX 5 8 0 0
BITMAP
30
00
F8
20
20
20
20
20
ENDCHAR
STARTCHAR tcaron
ENCODING 357
SWIDTH 570 0
DWIDTH 5 0
BBX 5 7 0 0
BITMAP
40
48
F8
C0
40
40
70
ENDCHAR
STARTCHAR Tbar
ENCODING 358
SWIDTH 578 0
DWIDTH 5 0
BBX 5 6 0 0
BITMAP
F8
20
20
70
20
20
ENDCHAR
STARTCHAR tbar
ENCODING 359
SWIDTH 437 0
DWIDTH 4 0
BBX 4 7 0 0
BITMAP
40
40
F0
C0
E0
40
70
ENDCHAR
STARTCHAR Utilde
ENCODING 360
SWIDTH 673 0
DWIDTH 6 0
BBX 5 8 1 0
BITMAP
60
00
98
98
98
98
90
70
ENDCHAR
STARTCHAR utilde
ENCODING 361
SWIDTH 562 0
DWIDTH 5 0
BBX 5 6 0 0
BITMAP
70
D8
D8
D8
D8
78
ENDCHAR
STARTCHAR Umacron
ENCODING 362
SWIDTH 673 0
DWIDTH 6 0
BBX 5 8 1 0
BITMAP
60
00
98
98
98
98
90
70
ENDCHAR
STARTCHAR umacron
ENCODING 363
SWIDTH 562 0
DWIDTH 5 0
BBX 5 6 0 0
BITMAP
70
D8
D8
D8
D8
78
ENDCHAR
STARTCHAR Ubreve
ENCODING 364
SWIDTH 673 0
DWIDTH 6 0
BBX 5 8 1 0
BITMAP
60
00
98
98
98
98
90
70
ENDCHAR
STARTCHAR ubreve
ENCODING 365
SWIDTH 562 0
DWIDTH 5 0
BBX 5 6 0 0
BITMAP
20
D8
D8
D8
D8
78
ENDCHAR
STARTCHAR Uring
ENCODING 366
SWIDTH 673 0
DWIDTH 6 0
BBX 5 8 1 0
BITMAP
60
00
98
98
98
98
90
70
ENDCHAR
STARTCHAR uring
ENCODING 367
SWIDTH 562 0
DWIDTH 5 0
BBX 5 5 0 0
BITMAP
D8
D8
D8
D8
78
ENDCHAR
STARTCHAR Uhungarumlaut
ENCODING 368
SWIDTH 673 0
DWIDTH 6 0
BBX 5 8 1 0
BITMAP
50
00
98
98
98
98
90
70
ENDCHAR
STARTCHAR uhungarumlaut
ENCODING 369
SWIDTH 562 0
DWIDTH 5 0
BBX 5 7 0 0
BITMAP
20
70
D8
D8
D8
D8
78
ENDCHAR
STARTCHAR Uogonek
ENCODING 370
SWIDTH 673 0
DWIDTH 6 0
BBX 5 8 1 -2
BITMAP
98
98
98
98
90
70
40
40
ENDCHAR
STARTCHAR uogonek
ENCODING 371
SWIDTH 562 0
DWIDTH 5 0
BBX 5 7 0 -2
BITMAP
D8
D8
D8
D8
78
10
08
ENDCHAR
STARTCHAR Wcircumflex
ENCODING 372
SWIDTH 819 0
DWIDTH 7 0
BBX 6 8 1 0
BITMAP
30
00
A4
A4
A4
A4
A4
F8
ENDCHAR
STARTCHAR wcircumflex
ENCODING 373
SWIDTH 756 0
DWIDTH 7 0
BBX 6 6 0 0
BITMAP
10
D4
D4
D4
D4
7C
ENDCHAR
STARTCHAR Ycircumflex
ENCODING 374
SWIDTH 620 0
DWIDTH 6 0
BBX 5 8 0 0
BITMAP
30
00
C8
C8
C8
70
20
20
ENDCHAR
STARTCHAR ycircumflex
ENCODING 375
SWIDTH 562 0
DWIDTH 5 0
BBX 5 8 0 -2
BITMAP
20
D8
D8
D8
D8
78
10
20
ENDCHAR
STARTCHAR Ydieresis
ENCODING 376
SWIDTH 620 0
DWIDTH 6 0
BBX 5 8 0 0
BITMAP
70
00
C8
C8
C8
70
20
20
ENDCHAR
STARTCHAR Zacute
ENCODING 377
SWIDTH 586 0
DWIDTH 5 0
BBX 5 8 0 0
BITMAP
10
00
F8
10
30
20
60
F8
ENDCHAR
STARTCHAR zacute
ENCODING 378
SWIDTH 481 0
DWIDTH 4 0
BBX 4 7 0 0
BITMAP
30
00
F0
E0
20
40
F0
ENDCHAR
STARTCHAR Zdotaccent
ENCODING 379
SWIDTH 586 0
DWIDTH 5 0
BBX 5 8 0 0
BITMAP
20
00
F8
10
30
20
60
F8
ENDCHAR
STARTCHAR zdotaccent
ENCODING 380
SWIDTH 481 0
DWIDTH 4 0
BBX 4 6 0 0
BITMAP
20
F0
E0
20
40
F0
ENDCHAR
STARTCHAR Zcaron
ENCODING 381
SWIDTH 586 0
DWIDTH 5 0
BBX 5 8 0 0
BITMAP
30
00
F8
10
30
20
60
F8
ENDCHAR
STARTCHAR zcaron
ENCODING 382
SWIDTH 481 0
DWIDTH 4 0
BBX 4 6 0 0
BITMAP
60
F0
E0
20
40
F0
ENDCHAR
STARTCHAR AEacute
ENCODING 508
SWIDTH 988 0
DWIDTH 9 0
BBX 8 8 1 0
BITMAP
08
00
FF
98
9E
F8
F8
9F
ENDCHAR
STARTCHAR aeacute
ENCODING 509
SWIDTH 976 0
DWIDTH 9 0
BBX 8 7 0 0
BITMAP
04
00
77
DD
8B
DE
7F
ENDCHAR
STARTCHAR Oslashacute
ENCODING 510
SWIDTH 777 0
DWIDTH 7 0
BBX 7 8 0 0
BITMAP
18
10
7C
4C
D6
F6
64
78
ENDCHAR
STARTCHAR oslashacute
ENCODING 511
SWIDTH 579 0
DWIDTH 5 0
BBX 5 7 0 0
BITMAP
10
00
78
D8
A8
F8
70
ENDCHAR
STARTCHAR dotlessj
ENCODING 567
SWIDTH 237 0
DWIDTH 2 0
BBX 3 7 -1 -2
BITMAP
60
60
60
60
60
40
80
ENDCHAR
STARTCHAR circumflex
ENCODING 710
SWIDTH 267 0
DWIDTH 2 0
BBX 2 1 0 5
BITMAP
C0
ENDCHAR
STARTCHAR caron
ENCODING 711
SWIDTH 267 0
DWIDTH 2 0
BBX 2 1 0 5
BITMAP
C0
ENDCHAR
STARTCHAR breve
ENCODING 728
SWIDTH 220 0
DWIDTH 2 0
BBX 2 1 0 5
BITMAP
C0
ENDCHAR
STARTCHAR dotaccent
ENCODING 729
SWIDTH 125 0
DWIDTH 1 0
BBX 1 1 0 5
BITMAP
80
ENDCHAR
STARTCHAR ring
ENCODING 730
SWIDTH 192 0
DWIDTH 2 0
BBX 2 1 0 5
BITMAP
C0
ENDCHAR
STARTCHAR ogonek
ENCODING 731
SWIDTH 212 0
DWIDTH 2 0
BBX 1 2 0 -2
BITMAP
80
80
ENDCHAR
STARTCHAR tilde
ENCODING 732
SWIDTH 321 0
DWIDTH 3 0
BBX 3 1 0 5
BITMAP
E0
ENDCHAR
STARTCHAR hungarumlaut
ENCODING 733
SWIDTH 384 0
DWIDTH 3 0
BBX 3 1 0 5
BITMAP
A0
ENDCHAR
STARTCHAR uni0312
ENCODING 786
SWIDTH 192 0
DWIDTH 2 0
BBX 1 1 0 5
BITMAP
80
ENDCHAR
STARTCHAR uni0315
ENCODING 789
SWIDTH 132 0
DWIDTH 1 0
BBX 1 1 0 5
BITMAP
80
ENDCHAR
STARTCHAR uni0326
ENCODING 806
SWIDTH 193 0
DWIDTH 2 0
BBX 1 1 0 -2
BITMAP
80
ENDCHAR
STARTCHAR pi
ENCODING 960
SWIDTH 555 0
DWIDTH 5 0
BBX 5 5 0 0
BITMAP
F8
D0
50
50
50
ENDCHAR
STARTCHAR Wgrave
ENCODING 7808
SWIDTH 819 0
DWIDTH 7 0
BBX 6 8 1 0
BITMAP
60
20
A4
A4
A4
A4
A4
F8
ENDCHAR
STARTCHAR wgrave
ENCODING 7809
SWIDTH 756 0
DWIDTH 7 0
BBX 6 7 0 0
BITMAP
20
00
D4
D4
D4
D4
7C
ENDCHAR
STARTCHAR Wacute
ENCODING 7810
SWIDTH 819 0
DWIDTH 7 0
BBX 6 8 1 0
BITMAP
10
00
A4
A4
A4
A4
A4
F8
ENDCHAR
STARTCHAR wacute
ENCODING 7811
SWIDTH 756 0
DWIDTH 7 0
BBX 6 7 0 0
BITMAP
08
00
D4
D4
D4
D4
7C
ENDCHAR
STARTCHAR Wdieresis
ENCODING 7812
SWIDTH 819 0
DWIDTH 7 0
BBX 6 8 1 0
BITMAP
50
00
A4
A4
A4
A4
A4
F8
ENDCHAR
STARTCHAR wdieresis
ENCODING 7813
SWIDTH 756 0
DWIDTH 7 0
BBX 6 6 0 0
BITMAP
28
D4
D4
D4
D4
7C
ENDCHAR
STARTCHAR Ygrave
ENCODING 7922
SWIDTH 620 0
DWIDTH 6 0
BBX 5 8 0 0
BITMAP
60
20
C8
C8
C8
70
20
20
ENDCHAR
STARTCHAR ygrave
ENCODING 7923
SWIDTH 562 0
DWIDTH 5 0
BBX 5 9 0 -2
BITMAP
40
00
D8
D8
D8
D8
78
10
20
ENDCHAR
STARTCHAR endash
ENCODING 8211
SWIDTH 418 0
DWIDTH 4 0
BBX 2 1 1 3
BITMAP
C0
ENDCHAR
STARTCHAR emdash
ENCODING 8212
SWIDTH 719 0
DWIDTH 6 0
BBX 5 1 1 3
BITMAP
F8
ENDCHAR
STARTCHAR quoteleft
ENCODING 8216
SWIDTH 246 0
DWIDTH 2 0
BBX 2 1 0 4
BITMAP
C0
ENDCHAR
STARTCHAR quoteright
ENCODING 8217
SWIDTH 245 0
DWIDTH 2 0
BBX 2 2 0 4
BITMAP
C0
40
ENDCHAR
STARTCHAR quotesinglbase
ENCODING 8218
SWIDTH 264 0
DWIDTH 2 0
BBX 2 2 0 -1
BITMAP
C0
40
ENDCHAR
STARTCHAR quotedblleft
ENCODING 8220
SWIDTH 445 0
DWIDTH 4 0
BBX 4 2 0 4
BITMAP
20
F0
ENDCHAR
STARTCHAR quotedblright
ENCODING 8221
SWIDTH 444 0
DWIDTH 4 0
BBX 4 2 0 4
BITMAP
F0
40
ENDCHAR
STARTCHAR quotedblbase
ENCODING 8222
SWIDTH 463 0
DWIDTH 4 0
BBX 4 2 0 -1
BITMAP
F0
50
ENDCHAR
STARTCHAR dagger
ENCODING 8224
SWIDTH 434 0
DWIDTH 4 0
BBX 4 8 0 -1
BITMAP
60
F0
F0
60
60
60
60
60
ENDCHAR
STARTCHAR daggerdbl
ENCODING 8225
SWIDTH 452 0
DWIDTH 4 0
BBX 4 8 0 -1
BITMAP
60
F0
F0
60
60
F0
60
60
ENDCHAR
STARTCHAR bullet
ENCODING 8226
SWIDTH 354 0
DWIDTH 3 0
BBX 2 2 1 2
BITMAP
C0
80
ENDCHAR
STARTCHAR ellipsis
ENCODING 8230
SWIDTH 789 0
DWIDTH 7 0
BBX 7 1 0 0
BITMAP
D6
ENDCHAR
STARTCHAR perthousand
ENCODING 8240
SWIDTH 998 0
DWIDTH 9 0
BBX 9 6 0 0
BITMAP
A800
B000
5000
2F00
3680
4F00
ENDCHAR
STARTCHAR guilsinglleft
ENCODING 8249
SWIDTH 403 0
DWIDTH 4 0
BBX 3 5 0 0
BITMAP
20
60
C0
60
20
ENDCHAR
STARTCHAR guilsinglright
ENCODING 8250
SWIDTH 402 0
DWIDTH 4 0
BBX 2 4 1 0
BITMAP
80
40
C0
80
ENDCHAR
STARTCHAR fraction
ENCODING 8260
SWIDTH 477 0
DWIDTH 4 0
BBX 4 6 0 0
BITMAP
10
20
20
40
40
80
ENDCHAR
STARTCHAR Euro
ENCODING 8364
SWIDTH 806 0
DWIDTH 7 0
BBX 7 6 0 0
BITMAP
1E
20
70
F0
30
1E
ENDCHAR
STARTCHAR trademark
ENCODING 8482
SWIDTH 606 0
DWIDTH 5 0
BBX 4 2 1 4
BITMAP
90
90
ENDCHAR
STARTCHAR partialdiff
ENCODING 8706
SWIDTH 609 0
DWIDTH 5 0
BBX 5 7 0 0
BITMAP
30
10
78
58
C8
C8
70
ENDCHAR
STARTCHAR product
ENCODING 8719
SWIDTH 632 0
DWIDTH 6 0
BBX 5 6 0 0
BITMAP
F8
58
58
58
58
58
ENDCHAR
STARTCHAR minus
ENCODING 8722
SWIDTH 543 0
DWIDTH 5 0
BBX 3 1 1 3
BITMAP
E0
ENDCHAR
STARTCHAR infinity
ENCODING 8734
SWIDTH 771 0
DWIDTH 7 0
BBX 7 4 0 1
BITMAP
6C
D6
D6
6C
ENDCHAR
STARTCHAR approxequal
ENCODING 8776
SWIDTH 476 0
DWIDTH 4 0
BBX 3 4 1 1
BITMAP
A0
C0
A0
C0
ENDCHAR
STARTCHAR notequal
ENCODING 8800
SWIDTH 512 0
DWIDTH 5 0
BBX 4 6 0 0
BITMAP
10
F0
F0
F0
40
40
ENDCHAR
STARTCHAR fi
ENCODING 64257
SWIDTH 650 0
DWIDTH 6 0
BBX 5 7 0 0
BITMAP
78
48
F8
48
48
48
48
ENDCHAR
STARTCHAR fl
ENCODING 64258
SWIDTH 631 0
DWIDTH 6 0
BBX 5 7 0 0
BITMAP
78
48
E8
48
48
48
48
ENDCHAR
STARTCHAR .notdef
ENCODING -1
SWIDTH 279 0
DWIDTH 3 0
BBX 1 1 0 0
BITMAP
00
ENDCHAR
STARTCHAR .null
ENCODING -1
SWIDTH 0 0
DWIDTH 0 0
BBX 1 1 0 0
BITMAP
00
ENDCHAR
STARTCHAR nonmarkingreturn
ENCODING -1
SWIDTH 279 0
DWIDTH 3 0
BBX 1 1 0 0
BITMAP
00
ENDCHAR
ENDFONT
